<svg width="30" height="30" viewBox="0 0 30 30" fill="none" xmlns="http://www.w3.org/2000/svg">
<rect width="30" height="30" fill="#1E1E1E"/>
<g id="Prototype 3 Selected Filters State" clip-path="url(#clip0_1_2)">
<rect width="1512" height="3668" transform="translate(-1210 -383)" fill="white"/>
<g id="Vector">
</g>
<g id="Primary Button">

<g id="uil:arrow-right">
<path id="Vector_3" d="M22.4 14.5252C22.3405 14.3718 22.2513 14.2316 22.1375 14.1127L15.8875 7.86273C15.771 7.74618 15.6326 7.65373 15.4803 7.59066C15.328 7.52758 15.1648 7.49512 15 7.49512C14.6671 7.49512 14.3479 7.62735 14.1125 7.86273C13.996 7.97928 13.9035 8.11764 13.8404 8.26992C13.7773 8.4222 13.7449 8.58541 13.7449 8.75023C13.7449 9.08311 13.8771 9.40235 14.1125 9.63773L18.2375 13.7502H8.75C8.41848 13.7502 8.10054 13.8819 7.86612 14.1163C7.6317 14.3508 7.5 14.6687 7.5 15.0002C7.5 15.3318 7.6317 15.6497 7.86612 15.8841C8.10054 16.1185 8.41848 16.2502 8.75 16.2502H18.2375L14.1125 20.3627C13.9953 20.4789 13.9023 20.6172 13.8389 20.7695C13.7754 20.9218 13.7428 21.0852 13.7428 21.2502C13.7428 21.4152 13.7754 21.5786 13.8389 21.731C13.9023 21.8833 13.9953 22.0215 14.1125 22.1377C14.2287 22.2549 14.367 22.3479 14.5193 22.4113C14.6716 22.4748 14.835 22.5075 15 22.5075C15.165 22.5075 15.3284 22.4748 15.4807 22.4113C15.633 22.3479 15.7713 22.2549 15.8875 22.1377L22.1375 15.8877C22.2513 15.7689 22.3405 15.6287 22.4 15.4752C22.525 15.1709 22.525 14.8296 22.4 14.5252Z" fill="#1E53D9"/>
</g>
</g>
</g>
<defs>
<clipPath id="clip0_1_2">
<rect width="1512" height="3668" fill="white" transform="translate(-1210 -383)"/>
</clipPath>
</defs>
</svg>
