<svg width="31" height="20" viewBox="0 0 20 31" fill="none" xmlns="http://www.w3.org/2000/svg">
<g id="mage:filter">
<path id="Vector" d="M19.1252 11.0685H8.15793M4.28675 11.0685H2.70312M4.28675 11.0685C4.28675 10.5499 4.49063 10.0525 4.85354 9.68584C5.21645 9.31915 5.70866 9.11314 6.22189 9.11314C6.73513 9.11314 7.22734 9.31915 7.59025 9.68584C7.95316 10.0525 8.15704 10.5499 8.15704 11.0685C8.15704 11.5871 7.95316 12.0844 7.59025 12.4511C7.22734 12.8178 6.73513 13.0238 6.22189 13.0238C5.70866 13.0238 5.21645 12.8178 4.85354 12.4511C4.49063 12.0844 4.28675 11.5871 4.28675 11.0685ZM19.1252 16.9946H14.0228M14.0228 16.9946C14.0228 17.5133 13.8185 18.0112 13.4555 18.378C13.0925 18.7448 12.6002 18.9508 12.0868 18.9508C11.5736 18.9508 11.0814 18.7439 10.7184 18.3772C10.3555 18.0105 10.1517 17.5132 10.1517 16.9946M14.0228 16.9946C14.0228 16.4759 13.8185 15.9789 13.4555 15.6121C13.0925 15.2453 12.6002 15.0393 12.0868 15.0393C11.5736 15.0393 11.0814 15.2453 10.7184 15.612C10.3555 15.9787 10.1517 16.476 10.1517 16.9946M10.1517 16.9946H2.70312M19.1252 5.14235H16.369M12.4978 5.14235H2.70312M12.4978 5.14235C12.4978 4.62377 12.7017 4.12642 13.0646 3.75972C13.4275 3.39302 13.9197 3.18701 14.4329 3.18701C14.6871 3.18701 14.9387 3.23759 15.1735 3.33585C15.4083 3.43412 15.6216 3.57815 15.8013 3.75972C15.981 3.94129 16.1235 4.15684 16.2208 4.39408C16.318 4.63131 16.3681 4.88558 16.3681 5.14235C16.3681 5.39913 16.318 5.6534 16.2208 5.89063C16.1235 6.12787 15.981 6.34342 15.8013 6.52499C15.6216 6.70656 15.4083 6.85059 15.1735 6.94886C14.9387 7.04712 14.6871 7.0977 14.4329 7.0977C13.9197 7.0977 13.4275 6.89169 13.0646 6.52499C12.7017 6.15829 12.4978 5.66094 12.4978 5.14235Z" stroke="#03C38D" stroke-width="1.875" stroke-miterlimit="10" stroke-linecap="round"/>


</g>
</svg>
