<svg xmlns="http://www.w3.org/2000/svg" width="30" height="30" viewBox="0 0 30 30" fill="none">
<path d="M15.0352 29.0625C17.8091 29.0625 20.5207 28.2399 22.8272 26.6988C25.1337 25.1577 26.9313 22.9673 27.9929 20.4045C29.0544 17.8417 29.3321 15.0217 28.791 12.301C28.2498 9.58038 26.914 7.08131 24.9525 5.11985C23.6501 3.81749 22.104 2.7844 20.4024 2.07956C18.7007 1.37473 16.877 1.01196 15.0351 1.01196C11.3154 1.01197 7.74802 2.48963 5.11778 5.11988C2.48753 7.75013 1.00988 11.3175 1.00989 15.0372C1.00989 18.757 2.48756 22.3244 5.11781 24.9546C6.41715 26.261 7.9627 27.2968 9.66501 28.0019C11.3673 28.707 13.1926 29.0675 15.0352 29.0625ZM15.0352 2.88696C21.7348 2.88696 27.1854 8.33753 27.1854 15.0372C27.1854 21.7369 21.7348 27.1875 15.0352 27.1875C8.33548 27.1875 2.88492 21.7369 2.88492 15.0372C2.88492 8.33747 8.33548 2.88696 15.0352 2.88696Z" fill="black"/>
</svg>